<?xml version="1.0" encoding="utf-8"?>
<!-- Generator: Adobe Illustrator 25.1.0, SVG Export Plug-In . SVG Version: 6.00 Build 0)  -->
<svg version="1.1" id="Laag_1" xmlns="http://www.w3.org/2000/svg" xmlns:xlink="http://www.w3.org/1999/xlink" x="0px" y="0px"
	 viewBox="0 0 240.33 77.27" style="enable-background:new 0 0 240.33 77.27;" xml:space="preserve">
<style type="text/css">
	.st0{fill:#0082C2;}
	.st1{fill:#FFFFFF;}
	.st2{fill:#888B8C;}
</style>
<g>
	<path class="st0" d="M3.04,51.5h26.61c1.23,0,2.23-1,2.23-2.23v-9.25c0-1.23-1-2.23-2.23-2.23H3.04c-1.23,0-2.23,1-2.23,2.23v9.25
		C0.8,50.5,1.8,51.5,3.04,51.5z"/>
	<g>
		<path class="st1" d="M10.29,47.69c0.12,0.26,0.22,0.52,0.29,0.79c0.08,0.27,0.13,0.54,0.17,0.81c-0.47,0.17-0.9,0.29-1.28,0.34
			c-0.38,0.05-0.79,0.08-1.22,0.08c-0.77,0-1.45-0.13-2.04-0.38c-0.58-0.25-1.07-0.6-1.47-1.05c-0.4-0.45-0.7-0.99-0.9-1.61
			c-0.2-0.62-0.3-1.29-0.3-2.02c0-0.73,0.1-1.41,0.31-2.03c0.21-0.62,0.51-1.16,0.91-1.62c0.4-0.46,0.88-0.81,1.46-1.07
			c0.58-0.26,1.24-0.38,1.98-0.38c0.44,0,0.84,0.03,1.21,0.08s0.77,0.17,1.2,0.34c-0.02,0.27-0.07,0.54-0.16,0.8
			c-0.09,0.26-0.19,0.52-0.3,0.79c-0.32-0.11-0.6-0.19-0.85-0.23c-0.25-0.05-0.54-0.07-0.87-0.07c-0.88,0-1.55,0.29-2.02,0.85
			c-0.47,0.57-0.7,1.41-0.7,2.54c0,2.22,0.94,3.34,2.83,3.34c0.34,0,0.63-0.02,0.89-0.07C9.68,47.88,9.97,47.8,10.29,47.69z"/>
		<path class="st1" d="M11.51,39.73c0.15-0.02,0.33-0.04,0.53-0.05c0.2-0.02,0.38-0.03,0.53-0.03c0.35,0,0.71,0.03,1.09,0.08
			l2.15,7.75l2.17-7.75c0.18-0.03,0.36-0.05,0.53-0.05c0.17-0.01,0.34-0.01,0.51-0.01c0.16,0,0.33,0,0.5,0.01
			c0.17,0.01,0.34,0.03,0.53,0.05l-3.17,9.83c-0.19,0.03-0.38,0.05-0.55,0.06c-0.18,0.01-0.37,0.02-0.57,0.02
			c-0.18,0-0.36-0.01-0.53-0.02c-0.17-0.01-0.36-0.03-0.57-0.06L11.51,39.73z"/>
		<path class="st1" d="M24.86,49.72c-0.74,0-1.38-0.13-1.91-0.38c-0.54-0.26-0.98-0.61-1.33-1.06c-0.35-0.45-0.6-0.98-0.77-1.6
			c-0.17-0.62-0.25-1.29-0.25-2.02c0-0.73,0.08-1.41,0.25-2.03c0.17-0.62,0.43-1.16,0.77-1.62c0.35-0.46,0.79-0.81,1.33-1.07
			c0.54-0.26,1.18-0.38,1.91-0.38c0.74,0,1.38,0.13,1.91,0.38c0.54,0.26,0.98,0.61,1.33,1.07c0.35,0.46,0.6,1,0.77,1.62
			c0.17,0.62,0.25,1.3,0.25,2.03c0,0.73-0.08,1.4-0.25,2.02c-0.17,0.62-0.43,1.15-0.77,1.6c-0.35,0.45-0.79,0.8-1.33,1.06
			C26.24,49.59,25.6,49.72,24.86,49.72z M24.86,48.05c1.41,0,2.12-1.13,2.12-3.39c0-1.13-0.17-1.98-0.51-2.54
			c-0.34-0.56-0.87-0.85-1.59-0.85c-1.43,0-2.15,1.13-2.15,3.39S23.44,48.05,24.86,48.05z"/>
	</g>
</g>
<path class="st0" d="M143.06,1.42c-1.08-0.13-2.07-0.24-2.96-0.31c-0.89-0.08-1.82-0.11-2.76-0.11c-1.08,0-2.07,0.03-2.96,0.11
	c-0.89,0.07-1.83,0.18-2.83,0.31l-21.2,66.61h9.94l8.15-26h16.82l2.82,10.17c1.69,0.28,3.44,0.43,5.22,0.43
	c1.84,0,3.73-0.14,5.65-0.43L143.06,1.42z M130.85,33.49l6.14-21.33l5.86,21.33H130.85z"/>
<path class="st2" d="M119.64,70.39l-1.68,5.41c-1.7,0.29-3.33,0.43-4.88,0.43c-1.74,0-3.46-0.13-5.15-0.43l1.72-5.41H119.64z"/>
<path class="st2" d="M71.04,31.69c-0.56-1.58-1.35-2.91-2.36-4.02c-1.01-1.11-2.25-2.04-3.71-2.8c-1.46-0.75-3.08-1.48-4.88-2.19
	l-4.24-1.62c-0.71-0.28-1.41-0.58-2.12-0.88c-0.71-0.31-1.33-0.69-1.9-1.14c-0.57-0.44-1.01-0.98-1.34-1.62
	C50.16,16.79,50,16,50,15.06c0-1.18,0.21-2.14,0.64-2.86c0.42-0.73,0.96-1.28,1.62-1.66c0.66-0.38,1.4-0.64,2.23-0.77
	c0.82-0.15,1.64-0.22,2.43-0.22c1.32,0,2.5,0.06,3.53,0.18c1.04,0.12,1.97,0.27,2.8,0.46c0.82,0.19,1.6,0.42,2.32,0.71
	c0.74,0.27,1.45,0.56,2.16,0.84c1.23-2.64,1.98-5.32,2.26-8.05c-2.31-0.79-4.5-1.41-6.6-1.83c-2.09-0.42-4.35-0.64-6.74-0.64
	c-2.64,0-5.02,0.32-7.14,0.96C47.38,2.8,45.57,3.74,44.06,5c-1.51,1.25-2.67,2.79-3.49,4.62c-0.82,1.83-1.24,3.95-1.24,6.36
	c0,1.98,0.25,3.68,0.74,5.09c0.5,1.41,1.19,2.62,2.09,3.63c0.89,1.02,1.97,1.88,3.25,2.62c1.27,0.73,2.71,1.4,4.31,2.01l4.31,1.63
	c0.85,0.32,1.68,0.67,2.47,1.02c0.8,0.35,1.52,0.78,2.16,1.3c0.64,0.52,1.15,1.16,1.55,1.91c0.4,0.75,0.6,1.69,0.6,2.83
	c0,2.26-0.84,3.94-2.54,5.04c-1.7,1.11-4.02,1.67-6.99,1.67c-1.97,0-3.84-0.21-5.57-0.61c-1.75-0.39-3.61-1-5.58-1.8
	c-0.52,1.5-0.97,3-1.34,4.48c-0.37,1.48-0.64,2.9-0.77,4.28c1.18,0.47,2.31,0.86,3.38,1.2c1.09,0.33,2.18,0.6,3.29,0.81
	c1.11,0.21,2.28,0.36,3.5,0.46c1.22,0.09,2.61,0.14,4.16,0.14c3.16,0,5.94-0.4,8.38-1.2c2.42-0.8,4.45-1.91,6.1-3.33
	c1.65-1.41,2.91-3.11,3.79-5.08c0.86-1.98,1.3-4.17,1.3-6.57C71.89,35.21,71.61,33.27,71.04,31.69z"/>
<path class="st2" d="M111.17,47.3c-0.4-1.38-0.9-2.74-1.52-4.06c-1.65,0.57-3.13,0.97-4.44,1.21c-1.32,0.24-2.85,0.35-4.59,0.35
	c-9.75,0-14.63-5.75-14.63-17.23c0-5.79,1.22-10.16,3.64-13.1c2.42-2.94,5.9-4.41,10.42-4.41c1.75,0,3.25,0.12,4.52,0.35
	c1.28,0.24,2.73,0.64,4.37,1.21c0.57-1.36,1.09-2.72,1.56-4.06c0.47-1.34,0.75-2.72,0.84-4.13c-2.22-0.9-4.28-1.49-6.18-1.77
	c-1.9-0.28-3.99-0.43-6.25-0.43c-3.82,0-7.22,0.67-10.2,1.98c-2.99,1.31-5.51,3.16-7.56,5.51c-2.05,2.35-3.61,5.14-4.7,8.37
	c-1.08,3.23-1.62,6.72-1.62,10.49c0,3.77,0.52,7.25,1.55,10.46c1.04,3.2,2.58,5.96,4.63,8.3c2.05,2.32,4.57,4.14,7.59,5.43
	c3.01,1.29,6.52,1.94,10.53,1.94c2.26,0,4.37-0.14,6.32-0.42c1.95-0.28,4.15-0.87,6.6-1.77C111.87,50.09,111.57,48.69,111.17,47.3z"
	/>
<path class="st2" d="M192.84,45.81c-0.04-0.73-0.14-1.49-0.27-2.3h-17.59V1.64c-1.8-0.28-3.51-0.43-5.16-0.43
	c-1.6,0-3.27,0.15-5.01,0.43v50.77h27.76c0.14-0.79,0.24-1.56,0.27-2.3c0.05-0.73,0.08-1.47,0.08-2.22
	C192.92,47.24,192.89,46.55,192.84,45.81z"/>
<path class="st2" d="M222.82,1.43c-1.08-0.14-2.07-0.25-2.96-0.31c-0.89-0.08-1.81-0.11-2.76-0.11c-1.08,0-2.07,0.03-2.96,0.11
	c-0.89,0.07-1.83,0.18-2.83,0.31l-16.03,50.78c1.69,0.28,3.4,0.42,5.15,0.42c1.55,0,3.18-0.14,4.88-0.42l2.89-10.17h16.81
	l2.83,10.17c1.69,0.28,3.43,0.42,5.22,0.42c1.84,0,3.73-0.14,5.65-0.42L222.82,1.43z M210.61,33.49l6.14-21.33l5.87,21.33H210.61z"
	/>
</svg>
